<svg width="6" height="5" viewBox="0 0 6 5" fill="none" xmlns="http://www.w3.org/2000/svg"><g clipPath="url(#clip0_54_1050)"><path d="M1.8447 1.57156C1.8447 1.61885 1.82742 1.65978 1.79286 1.69434C1.7583 1.7289 1.71738 1.74618 1.67008 1.74618C1.62097 1.74618 1.57959 1.7289 1.54594 1.69434C1.51229 1.65978 1.49547 1.61885 1.49547 1.57156C1.49547 1.52245 1.51229 1.48107 1.54594 1.44742C1.57959 1.41377 1.62097 1.39695 1.67008 1.39695C1.71738 1.39695 1.7583 1.41377 1.79286 1.44742C1.82742 1.48107 1.8447 1.52245 1.8447 1.57156ZM2.28124 2.96848V1.22233C2.28124 1.17504 2.26396 1.13411 2.2294 1.09955C2.19484 1.065 2.15391 1.04772 2.10662 1.04772H1.32086C1.27356 1.04772 1.23264 1.065 1.19808 1.09955C1.16352 1.13411 1.14624 1.17504 1.14624 1.22233V2.96848C1.14624 3.01577 1.16352 3.0567 1.19808 3.09126C1.23264 3.12581 1.27356 3.14309 1.32086 3.14309H2.10662C2.15391 3.14309 2.19484 3.12581 2.2294 3.09126C2.26396 3.0567 2.28124 3.01577 2.28124 2.96848ZM5.36155 2.56195C5.46159 2.67291 5.51161 2.80842 5.51161 2.96848C5.50979 3.11035 5.4575 3.23313 5.35473 3.33681C5.25196 3.44048 5.12964 3.49232 4.98777 3.49232H4.23201C4.23929 3.51779 4.24656 3.53962 4.25384 3.5578C4.26111 3.57599 4.27112 3.596 4.28385 3.61783C4.29658 3.63965 4.30568 3.65602 4.31113 3.66694C4.34387 3.73424 4.36843 3.78608 4.3848 3.82245C4.40117 3.85883 4.41845 3.91204 4.43664 3.98206C4.45483 4.05209 4.46392 4.12166 4.46392 4.19078C4.46392 4.23444 4.46347 4.26991 4.46256 4.29719C4.46165 4.32447 4.4571 4.3654 4.44892 4.41997C4.44073 4.47453 4.42982 4.52 4.41618 4.55638C4.40253 4.59276 4.38071 4.63369 4.3507 4.67916C4.32068 4.72463 4.28431 4.76146 4.24156 4.78966C4.19882 4.81785 4.14425 4.8415 4.07786 4.86059C4.01147 4.87969 3.93644 4.88924 3.85277 4.88924C3.80548 4.88924 3.76455 4.87196 3.72999 4.8374C3.69362 4.80103 3.66269 4.75555 3.63723 4.70099C3.61177 4.64642 3.59403 4.59913 3.58403 4.55911C3.57402 4.5191 3.56265 4.46362 3.54992 4.39268C3.53355 4.31629 3.52127 4.26127 3.51309 4.22762C3.5049 4.19397 3.48899 4.14986 3.46534 4.09529C3.4417 4.04072 3.4135 3.99707 3.38076 3.96433C3.32074 3.90431 3.22889 3.79517 3.1052 3.63693C3.01607 3.52052 2.92422 3.41047 2.82964 3.3068C2.73505 3.20312 2.66593 3.14946 2.62228 3.14582C2.57681 3.14218 2.5377 3.12354 2.50496 3.08989C2.47222 3.05624 2.45585 3.01668 2.45585 2.97121V1.22233C2.45585 1.17504 2.47313 1.13457 2.50769 1.10092C2.54225 1.06727 2.58317 1.04953 2.63047 1.04772C2.69413 1.0459 2.83782 1.00588 3.06155 0.927668C3.2016 0.880377 3.31119 0.844453 3.39031 0.819898C3.46944 0.795343 3.57993 0.768969 3.72181 0.740776C3.86368 0.712583 3.99464 0.698486 4.11469 0.698486H4.46665C4.70856 0.702124 4.88773 0.773061 5.00414 0.911298C5.10963 1.0368 5.1542 1.20141 5.13783 1.40513C5.20876 1.47243 5.25787 1.55792 5.28516 1.6616C5.31608 1.77255 5.31608 1.87896 5.28516 1.98081C5.36883 2.09177 5.40793 2.21636 5.40248 2.3546C5.40248 2.4128 5.38883 2.48192 5.36155 2.56195Z" fill="#8A8A8A"/></g><defs><clipPath id="clip0_54_1050"><rect width="4.88921" height="4.88921" fill="white" transform="translate(0.971436)"/></clipPath></defs></svg>