<svg width="13" height="13" viewBox="0 0 13 13" fill="none" xmlns="http://www.w3.org/2000/svg">
<g clip-path="url(#clip0_109_78)">
<path d="M9.26445 4.45607C9.26445 3.63705 8.9391 2.85156 8.35996 2.27242C7.78081 1.69328 6.99533 1.36792 6.1763 1.36792C5.35727 1.36792 4.57179 1.69328 3.99264 2.27242C3.4135 2.85156 3.08814 3.63705 3.08814 4.45607C3.08814 8.05892 1.54407 9.08831 1.54407 9.08831H10.8085C10.8085 9.08831 9.26445 8.05892 9.26445 4.45607Z" stroke="#525252" stroke-width="0.693327" stroke-linecap="round" stroke-linejoin="round"/>
<path d="M7.0666 11.1471C6.97611 11.3031 6.84623 11.4326 6.68996 11.5226C6.53369 11.6126 6.35652 11.66 6.17618 11.66C5.99585 11.66 5.81867 11.6126 5.6624 11.5226C5.50614 11.4326 5.37625 11.3031 5.28577 11.1471" stroke="#525252" stroke-width="0.693327" stroke-linecap="round" stroke-linejoin="round"/>
</g>
<defs>
<clipPath id="clip0_109_78">
<rect width="12.3526" height="12.3526" fill="white" transform="translate(0 0.338501)"/>
</clipPath>
</defs>
</svg>
