<svg width="8" height="9" viewBox="0 0 8 9" fill="none" xmlns="http://www.w3.org/2000/svg"><g clipPath="url(#clip0_109_246)"><path d="M7.34939 2.88223C7.12039 2.20056 6.57706 1.65723 5.89573 1.42856C4.63773 1.00656 3.36206 1.00656 2.1044 1.42856C1.42273 1.65723 0.879395 2.20056 0.650728 2.88189C0.228729 4.13989 0.228729 5.41523 0.650728 6.67323C0.879395 7.35456 1.42273 7.89823 2.1044 8.12689C2.7324 8.33756 3.37006 8.44423 4.00006 8.44423C5.0074 8.44423 6.02806 8.31156 7.03373 8.04989C7.15073 8.01956 7.24206 7.92823 7.27239 7.81123C7.53406 6.80556 7.66673 5.78489 7.66673 4.77756C7.66673 4.14789 7.56006 3.51023 7.34939 2.88189V2.88223ZM6.67539 7.45289C5.78639 7.66856 4.8874 7.77789 4.0004 7.77789C3.44306 7.77789 2.87639 7.68256 2.31706 7.49489C1.8324 7.33223 1.44606 6.94589 1.2834 6.46123C0.908395 5.34423 0.908395 4.21123 1.2834 3.09423C1.44573 2.60956 1.83206 2.22323 2.31706 2.06089C2.8754 1.87356 3.43806 1.77956 4.0004 1.77956C4.56273 1.77956 5.12539 1.87323 5.68406 2.06089C6.16873 2.22323 6.55506 2.60956 6.71773 3.09456C6.90539 3.65423 7.00073 4.22056 7.00073 4.77789C7.00073 5.66523 6.89139 6.56389 6.67573 7.45289H6.67539Z" fill="#545454"/><path d="M5.68809 4.44458H2.31209C2.12809 4.44458 1.97876 4.59391 1.97876 4.77791C1.97876 4.96191 2.12809 5.11125 2.31209 5.11125H5.68809C5.87209 5.11125 6.02143 4.96191 6.02143 4.77791C6.02143 4.59391 5.87209 4.44458 5.68809 4.44458Z" fill="#545454"/><path d="M5.35468 5.78491H2.64535C2.46135 5.78491 2.31201 5.93425 2.31201 6.11825C2.31201 6.30225 2.46135 6.45158 2.64535 6.45158H5.35468C5.53868 6.45158 5.68801 6.30225 5.68801 6.11825C5.68801 5.93425 5.53868 5.78491 5.35468 5.78491Z" fill="#545454"/><path d="M2.64535 3.77091H3.61335C3.79735 3.77091 3.94668 3.62158 3.94668 3.43758C3.94668 3.25358 3.79735 3.10425 3.61335 3.10425H2.64535C2.46135 3.10425 2.31201 3.25358 2.31201 3.43758C2.31201 3.62158 2.46135 3.77091 2.64535 3.77091Z" fill="#545454"/></g><defs><clipPath id="clip0_109_246"><rect width="8" height="8" fill="white" transform="translate(0 0.777954)"/></clipPath></defs></svg>