<svg width="13" height="13" viewBox="0 0 13 13" fill="none" xmlns="http://www.w3.org/2000/svg">
<path d="M10.9622 6.17924C10.9639 6.84958 10.8073 7.51086 10.5051 8.10921C10.1467 8.82622 9.59582 9.4293 8.91408 9.8509C8.23234 10.2725 7.44669 10.496 6.64512 10.4963C5.97477 10.498 5.3135 10.3414 4.71515 10.0392L1.82019 11.0042L2.78518 8.10921C2.48295 7.51086 2.32633 6.84958 2.32808 6.17924C2.32839 5.37767 2.55186 4.59201 2.97346 3.91028C3.39506 3.22854 3.99814 2.67764 4.71515 2.3193C5.3135 2.01707 5.97477 1.86045 6.64512 1.8622H6.89906C7.95768 1.9206 8.95755 2.36742 9.70724 3.11711C10.4569 3.86681 10.9038 4.86668 10.9622 5.92529V6.17924Z" stroke="#525252" stroke-width="0.653468" stroke-linecap="round" stroke-linejoin="round"/>
</svg>
