<svg width="6" height="6" viewBox="0 0 6 6" fill="none" xmlns="http://www.w3.org/2000/svg">
<g clip-path="url(#clip0_54_1411)">
<path d="M5.36007 2.76248L3.06257 5.05998C2.78111 5.34144 2.39937 5.49956 2.00132 5.49956C1.60328 5.49956 1.22153 5.34144 0.940072 5.05998C0.658611 4.77852 0.500488 4.39678 0.500488 3.99873C0.500488 3.60068 0.658611 3.21894 0.940072 2.93748L3.23757 0.63998C3.42521 0.452339 3.67971 0.346924 3.94507 0.346924C4.21044 0.346924 4.46493 0.452339 4.65257 0.63998C4.84021 0.827621 4.94563 1.08212 4.94563 1.34748C4.94563 1.61284 4.84021 1.86734 4.65257 2.05498L2.35257 4.35248C2.25875 4.4463 2.1315 4.49901 1.99882 4.49901C1.86614 4.49901 1.73889 4.4463 1.64507 4.35248C1.55125 4.25866 1.49854 4.13141 1.49854 3.99873C1.49854 3.86605 1.55125 3.7388 1.64507 3.64498L3.76757 1.52498" stroke="#383737" stroke-width="0.406154" stroke-linecap="round" stroke-linejoin="round"/>
</g>
<defs>
<clipPath id="clip0_54_1411">
<rect width="6" height="6" fill="white"/>
</clipPath>
</defs>
</svg>
