<svg width="11" height="12" viewBox="0 0 11 12" fill="none" xmlns="http://www.w3.org/2000/svg"><g clip-path="url(#clip0_109_68)"><path d="M5.45901 7.79803C6.21276 7.79803 6.82379 7.187 6.82379 6.43326C6.82379 5.67951 6.21276 5.06848 5.45901 5.06848C4.70527 5.06848 4.09424 5.67951 4.09424 6.43326C4.09424 7.187 4.70527 7.79803 5.45901 7.79803Z" stroke="#525252" strokeWidth="0.67742" strokeLinecap="round" strokeLinejoin="round"/><path d="M8.82571 7.79791C8.76515 7.93513 8.74709 8.08733 8.77384 8.23491C8.8006 8.38248 8.87096 8.51866 8.97583 8.62588L9.00313 8.65317C9.08772 8.73767 9.15483 8.83802 9.20062 8.94847C9.24641 9.05893 9.26998 9.17732 9.26998 9.29689C9.26998 9.41646 9.24641 9.53486 9.20062 9.64531C9.15483 9.75576 9.08772 9.85611 9.00313 9.94061C8.91863 10.0252 8.81828 10.0923 8.70783 10.1381C8.59737 10.1839 8.47898 10.2075 8.35941 10.2075C8.23984 10.2075 8.12144 10.1839 8.01099 10.1381C7.90054 10.0923 7.80019 10.0252 7.71569 9.94061L7.68839 9.91332C7.58118 9.80844 7.445 9.73809 7.29743 9.71133C7.14985 9.68457 6.99764 9.70263 6.86043 9.76319C6.72588 9.82086 6.61112 9.91661 6.53029 10.0387C6.44946 10.1607 6.40609 10.3037 6.4055 10.4501V10.5275C6.4055 10.7688 6.30964 11.0002 6.13901 11.1708C5.96838 11.3415 5.73696 11.4373 5.49565 11.4373C5.25435 11.4373 5.02292 11.3415 4.85229 11.1708C4.68166 11.0002 4.5858 10.7688 4.5858 10.5275V10.4865C4.58228 10.3359 4.53354 10.1899 4.44592 10.0674C4.35829 9.94489 4.23584 9.85158 4.09448 9.79958C3.95727 9.73903 3.80506 9.72096 3.65749 9.74772C3.50991 9.77448 3.37373 9.84483 3.26652 9.94971L3.23922 9.97701C3.15472 10.0616 3.05438 10.1287 2.94392 10.1745C2.83347 10.2203 2.71507 10.2439 2.5955 10.2439C2.47593 10.2439 2.35754 10.2203 2.24708 10.1745C2.13663 10.1287 2.03628 10.0616 1.95178 9.97701C1.86719 9.89251 1.80008 9.79216 1.75429 9.6817C1.7085 9.57125 1.68494 9.45285 1.68494 9.33329C1.68494 9.21372 1.7085 9.09532 1.75429 8.98487C1.80008 8.87441 1.86719 8.77407 1.95178 8.68957L1.97908 8.66227C2.08396 8.55505 2.15431 8.41888 2.18107 8.2713C2.20783 8.12373 2.18976 7.97152 2.1292 7.83431C2.07154 7.69975 1.97578 7.585 1.85373 7.50417C1.73168 7.42334 1.58866 7.37996 1.44227 7.37938H1.36493C1.12362 7.37938 0.892197 7.28352 0.721567 7.11289C0.550937 6.94226 0.455078 6.71084 0.455078 6.46953C0.455078 6.22822 0.550937 5.9968 0.721567 5.82617C0.892197 5.65554 1.12362 5.55968 1.36493 5.55968H1.40587C1.55645 5.55616 1.70249 5.50742 1.82499 5.41979C1.9475 5.33217 2.04082 5.20972 2.09281 5.06836C2.15337 4.93115 2.17143 4.77894 2.14467 4.63136C2.11792 4.48379 2.04756 4.34761 1.94268 4.24039L1.91539 4.2131C1.83079 4.1286 1.76368 4.02825 1.7179 3.9178C1.67211 3.80734 1.64854 3.68895 1.64854 3.56938C1.64854 3.44981 1.67211 3.33142 1.7179 3.22096C1.76368 3.11051 1.83079 3.01016 1.91539 2.92566C1.99989 2.84107 2.10024 2.77396 2.21069 2.72817C2.32114 2.68238 2.43954 2.65881 2.55911 2.65881C2.67868 2.65881 2.79707 2.68238 2.90753 2.72817C3.01798 2.77396 3.11833 2.84107 3.20283 2.92566L3.23012 2.95296C3.33734 3.05783 3.47352 3.12819 3.62109 3.15494C3.76867 3.1817 3.92088 3.16364 4.05809 3.10308H4.09448C4.22904 3.04541 4.34379 2.94966 4.42462 2.82761C4.50545 2.70556 4.54882 2.56253 4.54941 2.41614V2.33881C4.54941 2.0975 4.64527 1.86607 4.8159 1.69544C4.98653 1.52481 5.21795 1.42896 5.45926 1.42896C5.70057 1.42896 5.93199 1.52481 6.10262 1.69544C6.27325 1.86607 6.36911 2.0975 6.36911 2.33881V2.37975C6.36969 2.52614 6.41307 2.66916 6.4939 2.79121C6.57473 2.91327 6.68948 3.00902 6.82404 3.06669C6.96125 3.12724 7.11346 3.14531 7.26103 3.11855C7.40861 3.09179 7.54478 3.02144 7.652 2.91656L7.67929 2.88927C7.7638 2.80467 7.86414 2.73756 7.9746 2.69177C8.08505 2.64599 8.20345 2.62242 8.32301 2.62242C8.44258 2.62242 8.56098 2.64599 8.67143 2.69177C8.78189 2.73756 8.88223 2.80467 8.96673 2.88927C9.05133 2.97377 9.11844 3.07411 9.16423 3.18457C9.21001 3.29502 9.23358 3.41342 9.23358 3.53299C9.23358 3.65255 9.21001 3.77095 9.16423 3.8814C9.11844 3.99186 9.05133 4.0922 8.96673 4.17671L8.93944 4.204C8.83456 4.31122 8.76421 4.44739 8.73745 4.59497C8.71069 4.74254 8.72876 4.89475 8.78931 5.03197V5.06836C8.84698 5.20291 8.94273 5.31767 9.06479 5.3985C9.18684 5.47932 9.32986 5.5227 9.47625 5.52328H9.55359C9.7949 5.52328 10.0263 5.61914 10.1969 5.78977C10.3676 5.9604 10.4634 6.19183 10.4634 6.43314C10.4634 6.67444 10.3676 6.90587 10.1969 7.0765C10.0263 7.24713 9.7949 7.34299 9.55359 7.34299H9.51264C9.36626 7.34357 9.22323 7.38695 9.10118 7.46778C8.97913 7.54861 8.88337 7.66336 8.82571 7.79791Z" stroke="#525252" strokeWidth="0.67742" strokeLinecap="round" strokeLinejoin="round"/></g><defs><clipPath id="clip0_109_68"><rect width="10.9182" height="10.9182" fill="white" transform="translate(0 0.974121)"/></clipPath></defs></svg>