<svg width="12" height="11" viewBox="0 0 12 11" fill="none" xmlns="http://www.w3.org/2000/svg">
<g clip-path="url(#clip0_109_73)">
<path d="M8.44333 9.55808V8.67007C8.44333 8.19904 8.25622 7.7473 7.92315 7.41423C7.59008 7.08116 7.13834 6.89404 6.66731 6.89404H3.11526C2.64423 6.89404 2.19249 7.08116 1.85942 7.41423C1.52635 7.7473 1.33923 8.19904 1.33923 8.67007V9.55808" stroke="#525252" stroke-width="0.666009" stroke-linecap="round" stroke-linejoin="round"/>
<path d="M4.89138 5.11797C5.87225 5.11797 6.66741 4.32281 6.66741 3.34194C6.66741 2.36107 5.87225 1.56592 4.89138 1.56592C3.91051 1.56592 3.11536 2.36107 3.11536 3.34194C3.11536 4.32281 3.91051 5.11797 4.89138 5.11797Z" stroke="#525252" stroke-width="0.666009" stroke-linecap="round" stroke-linejoin="round"/>
<path d="M11.1074 9.5581V8.67009C11.1071 8.27658 10.9761 7.89431 10.7351 7.5833C10.494 7.27229 10.1564 7.05016 9.77539 6.95178" stroke="#525252" stroke-width="0.666009" stroke-linecap="round" stroke-linejoin="round"/>
<path d="M7.99939 1.62366C8.38142 1.72147 8.72003 1.94365 8.96183 2.25517C9.20364 2.56669 9.33489 2.94983 9.33489 3.34418C9.33489 3.73853 9.20364 4.12167 8.96183 4.43319C8.72003 4.74471 8.38142 4.96689 7.99939 5.06471" stroke="#525252" stroke-width="0.666009" stroke-linecap="round" stroke-linejoin="round"/>
</g>
<defs>
<clipPath id="clip0_109_73">
<rect width="10.6561" height="10.6561" fill="white" transform="translate(0.895264 0.234009)"/>
</clipPath>
</defs>
</svg>
