<svg width="5" height="5" viewBox="0 0 5 5" fill="none" xmlns="http://www.w3.org/2000/svg"><path d="M0.876018 3.89022C0.876018 3.84194 0.859084 3.80016 0.825216 3.76488C0.791348 3.7296 0.751242 3.71197 0.704896 3.71197C0.656768 3.71197 0.616215 3.7296 0.583238 3.76488C0.550262 3.80016 0.533773 3.84194 0.533773 3.89022C0.533773 3.94035 0.550262 3.98259 0.583238 4.01694C0.616215 4.0513 0.656768 4.06847 0.704896 4.06847C0.751242 4.06847 0.791348 4.0513 0.825216 4.01694C0.859084 3.98259 0.876018 3.94035 0.876018 3.89022ZM1.30382 2.4642V4.24672C1.30382 4.295 1.28689 4.33678 1.25302 4.37206C1.21915 4.40734 1.17905 4.42498 1.1327 4.42498H0.362651C0.316305 4.42498 0.276198 4.40734 0.24233 4.37206C0.208462 4.33678 0.191528 4.295 0.191528 4.24672V2.4642C0.191528 2.41592 0.208462 2.37414 0.24233 2.33886C0.276198 2.30358 0.316305 2.28594 0.362651 2.28594H1.1327C1.17905 2.28594 1.21915 2.30358 1.25302 2.33886C1.28689 2.37414 1.30382 2.41592 1.30382 2.4642ZM4.46959 2.4642C4.46959 2.62388 4.42057 2.76221 4.32253 2.87919C4.34927 2.96089 4.36264 3.03145 4.36264 3.09087C4.36799 3.23198 4.32966 3.35917 4.24767 3.47244C4.27797 3.57642 4.27797 3.68504 4.24767 3.79831C4.22093 3.90414 4.1728 3.99141 4.10328 4.06011C4.11932 4.26808 4.07565 4.43612 3.97227 4.56424C3.85818 4.70535 3.68261 4.77777 3.44553 4.78148H3.10061C2.98296 4.78148 2.85462 4.76709 2.71559 4.73831C2.57655 4.70953 2.46826 4.68261 2.39072 4.65754C2.31318 4.63247 2.20578 4.5958 2.06853 4.54752C1.84928 4.46768 1.70846 4.42683 1.64607 4.42498C1.59972 4.42312 1.55962 4.40501 1.52575 4.37066C1.49188 4.33631 1.47495 4.295 1.47495 4.24672V2.46141C1.47495 2.41499 1.49099 2.37461 1.52308 2.34026C1.55516 2.3059 1.59349 2.28687 1.63805 2.28316C1.68083 2.27945 1.74856 2.22467 1.84126 2.11883C1.93395 2.01299 2.02397 1.90066 2.11131 1.78182C2.23252 1.62028 2.32254 1.50887 2.38136 1.4476C2.41345 1.41418 2.44108 1.36961 2.46425 1.31391C2.48742 1.25821 2.50302 1.21318 2.51104 1.17883C2.51906 1.14448 2.53109 1.08831 2.54714 1.01032C2.55961 0.937909 2.57076 0.881276 2.58056 0.840427C2.59036 0.799577 2.60774 0.751301 2.6327 0.695597C2.65765 0.639893 2.68796 0.593473 2.72361 0.556337C2.75747 0.521058 2.79758 0.503418 2.84393 0.503418C2.92592 0.503418 2.99945 0.513166 3.06451 0.532663C3.12958 0.552159 3.18305 0.576297 3.22494 0.605078C3.26683 0.633858 3.30248 0.671458 3.33189 0.717878C3.36131 0.764298 3.3827 0.806076 3.39606 0.843212C3.40943 0.880348 3.42013 0.926768 3.42815 0.982472C3.43617 1.03818 3.44063 1.07995 3.44152 1.10781C3.44241 1.13566 3.44286 1.17187 3.44286 1.21643C3.44286 1.28699 3.43439 1.35755 3.41745 1.4281C3.40052 1.49866 3.38359 1.55437 3.36665 1.59522C3.34972 1.63606 3.32521 1.68806 3.29312 1.75119C3.28778 1.76233 3.27886 1.77904 3.26639 1.80132C3.25391 1.8236 3.2441 1.84403 3.23697 1.86259C3.22984 1.88116 3.22271 1.90344 3.21558 1.92944H3.95622C4.09526 1.92944 4.21558 1.98236 4.31718 2.0882C4.41879 2.19403 4.46959 2.31937 4.46959 2.4642Z" fill="#8A8A8A"/></svg>