<svg width="11" height="11" viewBox="0 0 11 11" fill="none" xmlns="http://www.w3.org/2000/svg"><g id="search-outline 1" clipPath="url(#clip0_109_55)"><g id="Layer 2"><g id="search"><path id="Vector" d="M8.8472 8.21306L7.48959 6.85944C7.92761 6.3014 8.16528 5.6123 8.1644 4.90288C8.1644 4.27109 7.97705 3.65349 7.62605 3.12818C7.27505 2.60286 6.77615 2.19343 6.19246 1.95166C5.60876 1.70988 4.96648 1.64662 4.34683 1.76988C3.72718 1.89313 3.15799 2.19737 2.71125 2.64411C2.26451 3.09085 1.96027 3.66004 1.83702 4.27969C1.71376 4.89934 1.77702 5.54162 2.01879 6.12532C2.26057 6.70901 2.67 7.20791 3.19532 7.55891C3.72063 7.90992 4.33823 8.09726 4.97002 8.09726C5.67943 8.09815 6.36854 7.86047 6.92658 7.42245L8.2802 8.78006C8.31732 8.81749 8.36148 8.84719 8.41014 8.86747C8.4588 8.88774 8.51099 8.89817 8.5637 8.89817C8.61641 8.89817 8.6686 8.88774 8.71726 8.86747C8.76592 8.84719 8.81008 8.81749 8.8472 8.78006C8.88463 8.74294 8.91433 8.69878 8.9346 8.65012C8.95488 8.60146 8.96531 8.54927 8.96531 8.49656C8.96531 8.44385 8.95488 8.39166 8.9346 8.343C8.91433 8.29434 8.88463 8.25018 8.8472 8.21306ZM2.57423 4.90288C2.57423 4.42904 2.71474 3.96584 2.97799 3.57185C3.24125 3.17787 3.61542 2.87079 4.05319 2.68946C4.49096 2.50813 4.97268 2.46069 5.43741 2.55313C5.90215 2.64557 6.32904 2.87375 6.6641 3.2088C6.99915 3.54386 7.22733 3.97075 7.31977 4.43549C7.41221 4.90022 7.36477 5.38194 7.18344 5.81971C7.00211 6.25748 6.69503 6.63165 6.30105 6.8949C5.90706 7.15816 5.44386 7.29867 4.97002 7.29867C4.33462 7.29867 3.72524 7.04626 3.27594 6.59696C2.82664 6.14766 2.57423 5.53828 2.57423 4.90288Z" fill="#5D5D5D"/></g></g></g><defs><clipPath id="clip0_109_55"><rect width="9.58315" height="9.58315" fill="white" transform="translate(0.577637 0.51062)"/></clipPath></defs></svg>